<?xml version="1.0" encoding="UTF-8" standalone="no"?>
<!-- Created with Inkscape (http://www.inkscape.org/) -->

<svg
   xmlns:dc="http://purl.org/dc/elements/1.1/"
   xmlns:cc="http://creativecommons.org/ns#"
   xmlns:rdf="http://www.w3.org/1999/02/22-rdf-syntax-ns#"
   xmlns:svg="http://www.w3.org/2000/svg"
   xmlns="http://www.w3.org/2000/svg"
   xmlns:sodipodi="http://sodipodi.sourceforge.net/DTD/sodipodi-0.dtd"
   xmlns:inkscape="http://www.inkscape.org/namespaces/inkscape"
   width="744.09448819"
   height="1052.3622047"
   id="svg5563"
   version="1.1"
   inkscape:version="0.48.1 "
   sodipodi:docname="New document 4">
  <defs
     id="defs5565" />
  <sodipodi:namedview
     id="base"
     pagecolor="#ffffff"
     bordercolor="#666666"
     borderopacity="1.0"
     inkscape:pageopacity="0.0"
     inkscape:pageshadow="2"
     inkscape:zoom="0.7"
     inkscape:cx="406.49247"
     inkscape:cy="532.51762"
     inkscape:document-units="px"
     inkscape:current-layer="layer1"
     showgrid="true"
     inkscape:window-width="1600"
     inkscape:window-height="1138"
     inkscape:window-x="1912"
     inkscape:window-y="-8"
     inkscape:window-maximized="0">
    <inkscape:grid
       type="xygrid"
       id="grid5571" />
  </sodipodi:namedview>
  <metadata
     id="metadata5568">
    <rdf:RDF>
      <cc:Work
         rdf:about="">
        <dc:format>image/svg+xml</dc:format>
        <dc:type
           rdf:resource="http://purl.org/dc/dcmitype/StillImage" />
        <dc:title></dc:title>
      </cc:Work>
    </rdf:RDF>
  </metadata>
  <g
     inkscape:label="Layer 1"
     inkscape:groupmode="layer"
     id="layer1">
    <path
       style="fill:none;stroke:#000000;stroke-width:1px;stroke-linecap:butt;stroke-linejoin:miter;stroke-opacity:1"
       d="m 240,292.36218 120,0 0,20 -120,0 0,60 120,0 0,80 -140,0 0,-20 120,0 0,-40 -120,0 0,-100 z"
       id="path5575"
       inkscape:connector-curvature="0" />
    <path
       style="fill:none;stroke:#000000;stroke-width:1px;stroke-linecap:butt;stroke-linejoin:miter;stroke-opacity:1"
       d="m 260,332.36218 0,20 140,0 0,-100 -220,0 0,240 220,0 0,-20 -200,0 0,-200 180,0 0,60 z"
       id="path5577"
       inkscape:connector-curvature="0" />
    <path
       style="fill:#ff00ff;stroke:#000000;stroke-width:1px;stroke-linecap:butt;stroke-linejoin:miter;stroke-opacity:1"
       d="m 440,412.36218 -20,0 0,-180 -260,0 0,280 300,0 0,20 -320,0 0,-320 300,0 z"
       id="path5579"
       inkscape:connector-curvature="0" />
    <path
       style="fill:#003399;fill-opacity:1;fill-rule:nonzero;stroke:#000000;stroke-width:1.42857145999999990;stroke-miterlimit:4;stroke-opacity:0;stroke-dasharray:none"
       d="m 220.77819,442.41599 0,-9.28572 60,0 60,0 0,-20.71428 0,-20.71429 -60,0 -60,0 0,-49.28571 0,-49.28572 69.28571,0 69.28572,0 0,9.28572 0,9.28571 -60,0 -60,0 0,30.71429 0,30.71428 60,0 60,0 0,39.28572 0,39.28571 -69.28572,0 -69.28571,0 0,-9.28571 z"
       id="path5581"
       inkscape:connector-curvature="0" />
    <path
       style="fill:#ff9933;fill-opacity:1;fill-rule:nonzero;stroke:#000000;stroke-width:1.42857145999999990;stroke-miterlimit:4;stroke-opacity:0;stroke-dasharray:none"
       d="m 180.77819,372.41599 0,-119.28572 109.28571,0 109.28572,0 0,49.28572 0,49.28571 -69.28572,0 -69.28571,0 0,-9.28571 0,-9.28572 60,0 60,0 0,-30.71428 0,-30.71429 -90.71429,0 -90.71428,0 0,100.71429 0,100.71428 100,0 100,0 0,9.28572 0,9.28571 -109.28572,0 -109.28571,0 0,-119.28571 z"
       id="path5583"
       inkscape:connector-curvature="0" />
  </g>
</svg>
