<?xml version="1.0" encoding="UTF-8" standalone="no"?>
<!-- Created with Inkscape (http://www.inkscape.org/) -->

<svg
   xmlns:dc="http://purl.org/dc/elements/1.1/"
   xmlns:cc="http://creativecommons.org/ns#"
   xmlns:rdf="http://www.w3.org/1999/02/22-rdf-syntax-ns#"
   xmlns:svg="http://www.w3.org/2000/svg"
   xmlns="http://www.w3.org/2000/svg"
   xmlns:sodipodi="http://sodipodi.sourceforge.net/DTD/sodipodi-0.dtd"
   xmlns:inkscape="http://www.inkscape.org/namespaces/inkscape"
   width="744.09448819"
   height="1052.3622047"
   id="svg2"
   version="1.1"
   inkscape:version="0.48.1 "
   sodipodi:docname="New document 1">
  <defs
     id="defs4" />
  <sodipodi:namedview
     id="base"
     pagecolor="#ffffff"
     bordercolor="#666666"
     borderopacity="1.0"
     inkscape:pageopacity="0.0"
     inkscape:pageshadow="2"
     inkscape:zoom="1.5"
     inkscape:cx="268.04724"
     inkscape:cy="807.58075"
     inkscape:document-units="px"
     inkscape:current-layer="layer1"
     showgrid="false"
     inkscape:snap-page="true"
     inkscape:window-width="1920"
     inkscape:window-height="1018"
     inkscape:window-x="-8"
     inkscape:window-y="-8"
     inkscape:window-maximized="1"
     inkscape:snap-grids="true"
     showguides="false"
     inkscape:guide-bbox="true">
    <inkscape:grid
       type="xygrid"
       id="grid2997" />
    <sodipodi:guide
       orientation="1,0"
       position="220,720"
       id="guide3053" />
    <sodipodi:guide
       orientation="1,0"
       position="270,710"
       id="guide3057" />
    <sodipodi:guide
       orientation="0,1"
       position="270,756.66667"
       id="guide3059" />
  </sodipodi:namedview>
  <metadata
     id="metadata7">
    <rdf:RDF>
      <cc:Work
         rdf:about="">
        <dc:format>image/svg+xml</dc:format>
        <dc:type
           rdf:resource="http://purl.org/dc/dcmitype/StillImage" />
        <dc:title></dc:title>
      </cc:Work>
    </rdf:RDF>
  </metadata>
  <g
     inkscape:label="Layer 1"
     inkscape:groupmode="layer"
     id="layer1">
    <path
       sodipodi:type="arc"
       style="fill:none;stroke:#000000;stroke-width:2.00000024;stroke-miterlimit:4;stroke-dasharray:none"
       id="path2995"
       sodipodi:cx="135.13513"
       sodipodi:cy="168.5784"
       sodipodi:rx="50"
       sodipodi:ry="50"
       d="m 185.13513,168.5784 a 50,50 0 1 1 -99.999998,0 50,50 0 1 1 99.999998,0 z"
       transform="matrix(0.49999996,0,0,0.49999996,177.43244,108.07299)" />
    <path
       style="fill:none;stroke:#000000;stroke-width:1px;stroke-linecap:butt;stroke-linejoin:miter;stroke-opacity:1"
       d="m 200,282.36218 0,-30 c 0,0 0,-30 30,-30 30,0 30,0 30,0 0,0 30,0 30,30 0,30 0,30 0,30"
       id="path3001"
       inkscape:connector-curvature="0" />
    <path
       style="fill:none;stroke:#000000;stroke-width:1px;stroke-linecap:butt;stroke-linejoin:miter;stroke-opacity:1"
       d="m 220,252.36218 0,80"
       id="path3003"
       inkscape:connector-curvature="0" />
    <path
       style="fill:none;stroke:#000000;stroke-width:1px;stroke-linecap:butt;stroke-linejoin:miter;stroke-opacity:1"
       d="m 270,252.36218 0,80"
       id="path3005"
       inkscape:connector-curvature="0" />
    <path
       style="fill:none;stroke:#000000;stroke-width:1px;stroke-linecap:butt;stroke-linejoin:miter;stroke-opacity:1"
       d="m 200,282.36218 0,20 20,0"
       id="path3007"
       inkscape:connector-curvature="0" />
    <path
       style="fill:none;stroke:#000000;stroke-width:1px;stroke-linecap:butt;stroke-linejoin:miter;stroke-opacity:1"
       d="m 270,302.36218 20,0 0,-20"
       id="path3009"
       inkscape:connector-curvature="0" />
    <path
       style="fill:none;stroke:#000000;stroke-width:1px;stroke-linecap:butt;stroke-linejoin:miter;stroke-opacity:1"
       d="m 220,332.36218 0,40 20,0 0,-60 10,0 0,60 20,0 0,-40"
       id="path3011"
       inkscape:connector-curvature="0" />
    <path
       sodipodi:type="arc"
       style="fill:none;stroke:#000000;stroke-width:2.00000024;stroke-miterlimit:4;stroke-dasharray:none"
       id="path2995-6"
       sodipodi:cx="135.13513"
       sodipodi:cy="168.5784"
       sodipodi:rx="50"
       sodipodi:ry="50"
       d="m 185.13513,168.5784 a 50,50 0 1 1 -99.999998,0 50,50 0 1 1 99.999998,0 z"
       transform="matrix(0.49999996,0,0,0.49999996,317.43244,108.07299)" />
    <path
       style="fill:none;stroke:#000000;stroke-width:1px;stroke-linecap:butt;stroke-linejoin:miter;stroke-opacity:1"
       d="m 340,282.36217 0,-29.99999 c 0,0 0,-30 30,-30 30,0 30,0 30,0 0,0 30,0 30,30 0,29.99999 0,29.99999 0,29.99999"
       id="path3001-6"
       inkscape:connector-curvature="0" />
    <path
       style="fill:none;stroke:#000000;stroke-width:1px;stroke-linecap:butt;stroke-linejoin:miter;stroke-opacity:1"
       d="m 360,252.36218 0,79.99999"
       id="path3003-0"
       inkscape:connector-curvature="0" />
    <path
       style="fill:none;stroke:#000000;stroke-width:1px;stroke-linecap:butt;stroke-linejoin:miter;stroke-opacity:1"
       d="m 410,252.36218 0,79.99999"
       id="path3005-8"
       inkscape:connector-curvature="0" />
    <path
       style="fill:none;stroke:#000000;stroke-width:1px;stroke-linecap:butt;stroke-linejoin:miter;stroke-opacity:1"
       d="m 340,282.36217 0,20 20,0"
       id="path3007-5"
       inkscape:connector-curvature="0" />
    <path
       style="fill:none;stroke:#000000;stroke-width:1px;stroke-linecap:butt;stroke-linejoin:miter;stroke-opacity:1"
       d="m 410,302.36217 20,0 0,-20"
       id="path3009-0"
       inkscape:connector-curvature="0" />
    <path
       style="fill:none;stroke:#000000;stroke-width:1px;stroke-linecap:butt;stroke-linejoin:miter;stroke-opacity:1"
       d="m 360,332.36217 0,40 20,0 0,-60 10,0 0,60 20,0 0,-40"
       id="path3011-4"
       inkscape:connector-curvature="0" />
    <path
       style="fill:none;stroke:#000000;stroke-width:1px;stroke-linecap:butt;stroke-linejoin:miter;stroke-opacity:1"
       d="m 220,297.02885 50,0"
       id="path3061"
       inkscape:connector-curvature="0" />
    <path
       style="fill:none;stroke:#000000;stroke-width:1px;stroke-linecap:butt;stroke-linejoin:miter;stroke-opacity:1"
       d="m 360,295.69551 50,0"
       id="path3063"
       inkscape:connector-curvature="0" />
  </g>
</svg>
